<svg width="376" height="512" viewBox="0 0 376 512" fill="none" xmlns="http://www.w3.org/2000/svg">
<path d="M188.531 221.951C184.389 221.951 181.031 225.309 181.031 229.451V242.245L176.391 237.464C173.506 234.492 168.758 234.421 165.786 237.306C162.814 240.191 162.743 244.939 165.628 247.911L183.15 265.964C184.563 267.42 186.504 268.24 188.532 268.24H188.59C190.637 268.224 192.59 267.372 193.994 265.88L210.986 247.827C213.825 244.811 213.68 240.064 210.665 237.225C207.649 234.387 202.904 234.529 200.062 237.546L196.033 241.827V229.449C196.031 225.309 192.673 221.951 188.531 221.951V221.951Z" fill="#00F260"/>
<path d="M287.378 435.37H89.6839C79.7729 435.37 71.7109 443.433 71.7109 453.344V494.027C71.7109 503.938 79.7739 512.001 89.6839 512.001H144.332C148.474 512.001 151.832 508.643 151.832 504.501C151.832 500.359 148.474 497.001 144.332 497.001H89.6839C88.0449 497.001 86.7109 495.667 86.7109 494.027V453.344C86.7109 451.704 88.0449 450.37 89.6839 450.37H287.378C289.018 450.37 290.352 451.704 290.352 453.344V494.027C290.352 495.667 289.018 497.001 287.378 497.001H179.084C174.942 497.001 171.584 500.359 171.584 504.501C171.584 508.643 174.942 512.001 179.084 512.001H287.378C297.289 512.001 305.352 503.938 305.352 494.027V453.344C305.352 443.433 297.289 435.37 287.378 435.37V435.37Z" fill="#00F260"/>
<path d="M287.378 135.401H141.75C137.608 135.401 134.25 138.759 134.25 142.901C134.25 147.043 137.608 150.401 141.75 150.401H287.378C289.018 150.401 290.352 151.735 290.352 153.374V194.058C290.352 195.697 289.018 197.031 287.378 197.031H89.6839C88.0449 197.031 86.7109 195.697 86.7109 194.058V153.374C86.7109 151.735 88.0449 150.401 89.6839 150.401H107C111.142 150.401 114.5 147.043 114.5 142.901C114.5 138.759 111.142 135.401 107 135.401H89.6849C79.7739 135.401 71.7119 143.464 71.7119 153.374V194.058C71.7119 203.969 79.7749 212.031 89.6849 212.031H287.379C297.29 212.031 305.353 203.968 305.353 194.058V153.374C305.352 143.463 297.289 135.401 287.378 135.401Z" fill="#00F260"/>
<path d="M89.8449 327.184C89.8139 334.622 94.2589 341.205 101.168 343.957L174.057 372.986C178.724 374.844 183.627 375.774 188.531 375.774C193.435 375.774 198.338 374.845 203.005 372.986L275.893 343.957C282.803 341.206 287.248 334.622 287.217 327.184C287.186 319.746 282.686 313.2 275.753 310.506L248.323 299.847C244.458 298.347 240.115 300.261 238.615 304.121C237.115 307.982 239.029 312.328 242.889 313.828L270.32 324.487C271.963 325.126 272.214 326.49 272.216 327.246C272.218 328.002 271.98 329.369 270.342 330.021L197.453 359.05C191.699 361.342 185.361 361.342 179.606 359.05L106.717 330.021C105.08 329.369 104.841 328.002 104.844 327.246C104.847 326.49 105.098 325.125 106.74 324.487L179.794 296.1C185.427 293.912 191.631 293.912 197.264 296.1L210.663 301.307C214.528 302.809 218.871 300.893 220.371 297.033C221.871 293.173 219.957 288.826 216.097 287.326L202.698 282.119C193.562 278.568 183.498 278.568 174.362 282.119L101.308 310.506C94.3769 313.2 89.8769 319.747 89.8449 327.184V327.184Z" fill="#00F260"/>
<path d="M188.531 80.709C184.389 80.709 181.031 84.067 181.031 88.209V101.003L176.391 96.222C173.506 93.25 168.758 93.179 165.786 96.064C162.814 98.949 162.743 103.697 165.628 106.669L183.15 124.723C184.563 126.179 186.504 126.999 188.532 126.999H188.59C190.638 126.983 192.59 126.13 193.994 124.639L210.986 106.585C213.825 103.569 213.68 98.822 210.665 95.983C207.649 93.145 202.904 93.288 200.062 96.304L196.033 100.585V88.209C196.031 84.067 192.673 80.709 188.531 80.709V80.709Z" fill="#00F260"/>
<path d="M357.53 320.169H321.277C317.134 320.169 313.777 323.527 313.777 327.669C313.777 331.811 317.134 335.169 321.277 335.169H357.53C359.17 335.169 360.504 336.503 360.504 338.143V463.211C360.504 464.851 359.17 466.185 357.53 466.185H339.046L343.554 461.81C346.527 458.925 346.597 454.177 343.712 451.205C340.827 448.233 336.079 448.162 333.107 451.047L315.053 468.569C313.583 469.995 312.761 471.961 312.777 474.008C312.793 476.055 313.645 478.008 315.136 479.412L333.19 496.404C334.638 497.767 336.486 498.443 338.33 498.443C340.325 498.443 342.316 497.651 343.793 496.083C346.632 493.067 346.487 488.32 343.472 485.481L338.908 481.186H357.531C367.442 481.186 375.505 473.123 375.505 463.212V338.143C375.503 328.232 367.441 320.169 357.53 320.169V320.169Z" fill="#00F260"/>
<path d="M32.2881 202.697C33.7591 204.212 35.7131 204.973 37.6701 204.973C39.5521 204.973 41.4361 204.269 42.8931 202.855L60.9461 185.333C62.4161 183.907 63.2381 181.941 63.2221 179.894C63.2061 177.846 62.3531 175.894 60.8621 174.49L42.8091 157.498C39.7921 154.659 35.0461 154.802 32.2071 157.819C29.3681 160.835 29.5121 165.582 32.5281 168.421L37.0921 172.717H18.4701C8.55909 172.717 0.496094 180.78 0.496094 190.69V315.758C0.496094 325.669 8.55909 333.732 18.4701 333.732H54.7231C58.8651 333.732 62.2231 330.374 62.2231 326.232C62.2231 322.09 58.8651 318.732 54.7231 318.732H18.4701C16.8301 318.732 15.4961 317.398 15.4961 315.758V190.69C15.4961 189.051 16.8301 187.717 18.4701 187.717H36.9541L32.4461 192.092C29.4741 194.977 29.4041 199.725 32.2881 202.697V202.697Z" fill="#00F260"/>
<path d="M287.378 0H89.6839C79.7729 0 71.7109 8.063 71.7109 17.974V58.657C71.7109 68.568 79.7739 76.631 89.6839 76.631H287.378C297.289 76.631 305.352 68.568 305.352 58.657V17.974C305.352 8.063 297.289 0 287.378 0V0ZM290.352 58.657C290.352 60.297 289.018 61.631 287.378 61.631H89.6839C88.0449 61.631 86.7109 60.297 86.7109 58.657V17.974C86.7109 16.334 88.0449 15 89.6839 15H287.378C289.018 15 290.352 16.334 290.352 17.974V58.657Z" fill="#00F260"/>
</svg>
