<svg width="496" height="496" viewBox="0 0 496 496" fill="none" xmlns="http://www.w3.org/2000/svg">
<path d="M160 192V112C160 94.352 145.648 80 128 80C110.352 80 96 94.352 96 112V192H112V160H144V192H160ZM112 144V112C112 103.176 119.176 96 128 96C136.824 96 144 103.176 144 112V144H112Z" fill="#00F260"/>
<path d="M208 144C225.648 144 240 129.648 240 112C240 94.352 225.648 80 208 80H176V192H192V144H208ZM192 96H208C216.824 96 224 103.176 224 112C224 120.824 216.824 128 208 128H192V96Z" fill="#00F260"/>
<path d="M248 176V192H296V176H280V96H296V80H248V96H264V176H248Z" fill="#00F260"/>
<path d="M496 334.336V273.664L474.92 268.704C472.256 259.424 468.56 250.496 463.872 242.048L475.272 223.632L432.368 180.728L413.952 192.128C409.168 189.472 404.168 187.256 399.088 185.232C399.672 182.24 400 179.16 400 176C400 152.248 382.648 132.528 359.96 128.72C359.96 128.472 360 128.24 360 128C360 83.888 324.112 48 280 48C269.92 48 260.144 49.856 250.84 53.528C232.608 20.768 197.768 0 160 0C105.184 0 60.248 42.656 56.384 96.496C24.672 100.28 0 127.296 0 160C0 195.288 28.712 224 64 224H80V315.056L48 331.056V384H64V340.944L96 324.944V208H64C37.528 208 16 186.472 16 160C16 133.528 37.528 112 64 112C68.68 112 73.296 112.664 77.712 113.992L82.28 98.656C79.04 97.696 75.728 97.048 72.368 96.608C76.152 51.536 113.976 16 160 16C194.2 16 225.56 36.144 239.904 67.312L243.4 74.904L250.832 71.088C259.984 66.384 269.8 64 280 64C315.288 64 344 92.712 344 128C344 128.232 343.968 128.464 343.96 128.696C336.568 129.936 329.584 132.872 323.448 137.408L332.968 150.264C338.512 146.168 345.088 144 352 144C369.648 144 384 158.352 384 176C384 193.648 369.648 208 352 208H144V324.944L176 340.944V384H192V331.056L160 315.056V224H234.072L240.616 241.176C235.696 249.872 231.832 259.096 229.08 268.696L208 273.664V334.336L229.08 339.296C231.744 348.576 235.44 357.504 240.128 365.952L228.728 384.368L271.632 427.272L290.048 415.872C298.496 420.56 307.424 424.264 316.704 426.92L321.664 448H382.336L387.296 426.928C396.576 424.264 405.504 420.568 413.952 415.88L432.368 427.28L475.272 384.376L463.872 365.96C468.56 357.512 472.264 348.584 474.92 339.304L496 334.336ZM461.824 325.944L460.656 330.704C457.96 341.712 453.6 352.216 447.704 361.936L445.16 366.128L454.992 382.016L430.008 407L414.12 397.168L409.928 399.712C400.216 405.608 389.704 409.96 378.696 412.664L373.936 413.832L369.664 432H334.336L330.056 413.824L325.296 412.656C314.288 409.96 303.784 405.6 294.064 399.704L289.872 397.16L273.984 406.992L249 382.008L258.832 366.12L256.288 361.928C250.4 352.224 246.04 341.712 243.336 330.696L242.168 325.936L224 321.664V286.336L242.176 282.056L243.344 277.296C246.048 266.28 250.4 255.768 256.296 246.064L258.32 242.728L251.192 224H299.048C273.136 241.208 256 270.632 256 304C256 356.936 299.064 400 352 400C404.936 400 448 356.936 448 304C448 261.728 420.504 225.824 382.488 213.048C386.832 209.464 390.496 205.112 393.368 200.232C399.08 202.512 404.672 205.104 409.936 208.296L414.128 210.84L430.024 201.008L455.008 225.992L445.176 241.88L447.72 246.072C453.608 255.776 457.968 266.288 460.672 277.304L461.84 282.064L480 286.336V321.664L461.824 325.944ZM352 224C396.112 224 432 259.888 432 304C432 348.112 396.112 384 352 384C307.888 384 272 348.112 272 304C272 259.888 307.888 224 352 224Z" fill="#00F260"/>
<path d="M352 368C387.288 368 416 339.288 416 304C416 268.712 387.288 240 352 240C316.712 240 288 268.712 288 304C288 339.288 316.712 368 352 368ZM352 256C378.472 256 400 277.528 400 304C400 330.472 378.472 352 352 352C325.528 352 304 330.472 304 304C304 277.528 325.528 256 352 256Z" fill="#00F260"/>
<path d="M48 400H64V416H48V400Z" fill="#00F260"/>
<path d="M176 400H192V416H176V400Z" fill="#00F260"/>
<path d="M64 449.472V432H48V449.472C38.712 452.784 32 461.584 32 472C32 485.232 42.768 496 56 496C69.232 496 80 485.232 80 472C80 461.584 73.288 452.784 64 449.472ZM56 480C51.592 480 48 476.408 48 472C48 467.592 51.592 464 56 464C60.408 464 64 467.592 64 472C64 476.408 60.408 480 56 480Z" fill="#00F260"/>
<path d="M192 449.472V432H176V449.472C166.712 452.784 160 461.584 160 472C160 485.232 170.768 496 184 496C197.232 496 208 485.232 208 472C208 461.584 201.288 452.784 192 449.472ZM184 480C179.592 480 176 476.408 176 472C176 467.592 179.592 464 184 464C188.408 464 192 467.592 192 472C192 476.408 188.408 480 184 480Z" fill="#00F260"/>
<path d="M128 393.472V304H112V393.472C102.712 396.784 96 405.584 96 416C96 429.232 106.768 440 120 440C133.232 440 144 429.232 144 416C144 405.584 137.288 396.784 128 393.472ZM120 424C115.592 424 112 420.408 112 416C112 411.592 115.592 408 120 408C124.408 408 128 411.592 128 416C128 420.408 124.408 424 120 424Z" fill="#00F260"/>
<path d="M112 208H128V224H112V208Z" fill="#00F260"/>
<path d="M112 240H128V256H112V240Z" fill="#00F260"/>
<path d="M112 272H128V288H112V272Z" fill="#00F260"/>
</svg>
