<svg width="512" height="512" viewBox="0 0 512 512" fill="none" xmlns="http://www.w3.org/2000/svg">
<g clip-path="url(#clip0)">
<path d="M55.2617 28.7617C43.1367 28.7617 33.2734 38.6289 33.2734 50.75C33.2734 62.875 43.1367 72.7422 55.2617 72.7422C67.3867 72.7422 77.2539 62.875 77.2539 50.75C77.2539 38.6289 67.3867 28.7617 55.2617 28.7617ZM55.2617 57.7539C51.4023 57.7539 48.2578 54.6133 48.2578 50.75C48.2578 46.8906 51.4023 43.75 55.2617 43.75C59.125 43.75 62.2656 46.8906 62.2656 50.75C62.2656 54.6133 59.125 57.7539 55.2617 57.7539Z" fill="#00F260"/>
<path d="M111.25 28.7617C99.125 28.7617 89.2578 38.6289 89.2578 50.75C89.2578 62.875 99.125 72.7422 111.25 72.7422C123.375 72.7422 133.238 62.875 133.238 50.75C133.238 38.6289 123.375 28.7617 111.25 28.7617ZM111.25 57.7539C107.387 57.7539 104.246 54.6133 104.246 50.75C104.246 46.8906 107.387 43.75 111.25 43.75C115.109 43.75 118.254 46.8906 118.254 50.75C118.254 54.6133 115.109 57.7539 111.25 57.7539Z" fill="#00F260"/>
<path d="M167.234 28.7617C155.109 28.7617 145.246 38.6289 145.246 50.75C145.246 62.875 155.109 72.7422 167.234 72.7422C179.359 72.7422 189.227 62.875 189.227 50.75C189.227 38.6289 179.359 28.7617 167.234 28.7617ZM167.234 57.7539C163.375 57.7539 160.23 54.6133 160.23 50.75C160.23 46.8906 163.375 43.75 167.234 43.75C171.098 43.75 174.238 46.8906 174.238 50.75C174.238 54.6133 171.098 57.7539 167.234 57.7539Z" fill="#00F260"/>
<path d="M503.937 147.824C508.077 147.824 511.433 144.468 511.433 140.328L511.999 32.9765C511.999 14.7929 497.206 0 479.022 0H32.9804C14.7968 0 0 14.7968 0 32.9804V395.546C0 412.027 12.1523 425.722 27.9648 428.144C29.6015 428.398 31.2773 428.527 32.9804 428.527H178.785V455.401H156.16C141.07 455.401 128.789 467.679 128.789 482.769V498.96C128.789 505.847 134.39 511.448 141.277 511.448H177.011C181.148 511.448 184.504 508.093 184.504 503.952C184.504 499.815 181.148 496.46 177.011 496.46H143.777V482.769C143.777 475.94 149.332 470.386 156.16 470.386H355.273C362.101 470.386 367.656 475.94 367.656 482.769V496.46H223.531C219.394 496.46 216.039 499.815 216.039 503.952C216.039 508.093 219.394 511.448 223.531 511.448H370.152C377.038 511.448 382.64 505.847 382.64 498.96V482.769C382.64 467.679 370.363 455.401 355.269 455.401H332.644V428.527H478.452C480.155 428.527 481.831 428.398 483.464 428.144C499.28 425.722 511.429 412.027 511.429 395.546V186.789C511.429 182.648 508.077 179.293 503.937 179.293C499.8 179.293 496.444 182.648 496.444 186.789V352.136H262.21V101.929H496.444V140.328C496.444 144.468 499.8 147.824 503.937 147.824V147.824ZM15.539 101.929H247.222V351.597H15.539V101.929ZM317.66 455.401H193.773V428.527H317.66V455.401ZM496.444 367.124V395.546C496.444 404.847 489.351 412.523 480.288 413.448C479.683 413.507 479.073 413.538 478.452 413.538H32.9804C32.3593 413.538 31.746 413.507 31.1445 413.448C22.082 412.523 14.9883 404.847 14.9883 395.546V367.124H496.444ZM254.718 86.9412H15.539V32.9765C15.539 23.0585 23.6093 14.9883 33.5312 14.9883H478.452C488.374 14.9883 496.444 23.0585 496.444 32.9804V86.9412H254.718Z" fill="#00F260"/>
<path d="M46.9062 131.793H84.8711C89.0078 131.793 92.3633 128.441 92.3633 124.301C92.3633 120.164 89.0078 116.809 84.8711 116.809H46.9062C42.7656 116.809 39.4102 120.164 39.4102 124.301C39.4102 128.441 42.7656 131.793 46.9062 131.793Z" fill="#00F260"/>
<path d="M110.848 131.793H128.832C132.969 131.793 136.324 128.441 136.324 124.301C136.324 120.164 132.969 116.809 128.832 116.809H110.848C106.707 116.809 103.355 120.164 103.355 124.301C103.355 128.441 106.707 131.793 110.848 131.793Z" fill="#00F260"/>
<path d="M103.852 143.258H78.875C74.7383 143.258 71.3828 146.613 71.3828 150.754C71.3828 154.891 74.7383 158.246 78.875 158.246H103.852C107.992 158.246 111.348 154.891 111.348 150.754C111.348 146.613 107.992 143.258 103.852 143.258Z" fill="#00F260"/>
<path d="M221.746 170.656H196.77C192.633 170.656 189.277 174.012 189.277 178.148C189.277 182.285 192.633 185.641 196.77 185.641H221.746C225.887 185.641 229.238 182.285 229.238 178.148C229.238 174.012 225.887 170.656 221.746 170.656Z" fill="#00F260"/>
<path d="M119.34 150.754C119.34 154.891 122.695 158.246 126.832 158.246H186.777C190.918 158.246 194.273 154.891 194.273 150.754C194.273 146.613 190.918 143.258 186.777 143.258H126.832C122.695 143.258 119.34 146.613 119.34 150.754Z" fill="#00F260"/>
<path d="M95.3594 178.148C95.3594 182.285 98.7148 185.641 102.855 185.641H115.844C119.98 185.641 123.336 182.285 123.336 178.148C123.336 174.012 119.98 170.656 115.844 170.656H102.855C98.7148 170.656 95.3594 174.012 95.3594 178.148Z" fill="#00F260"/>
<path d="M173.789 185.641C177.93 185.641 181.285 182.285 181.285 178.148C181.285 174.012 177.93 170.656 173.789 170.656H137.824C133.684 170.656 130.328 174.012 130.328 178.148C130.328 182.285 133.684 185.641 137.824 185.641H173.789Z" fill="#00F260"/>
<path d="M92.3633 275.27C92.3633 271.129 89.0078 267.777 84.8711 267.777H46.9062C42.7656 267.777 39.4102 271.129 39.4102 275.27C39.4102 279.406 42.7656 282.762 46.9062 282.762H84.8711C89.0078 282.762 92.3633 279.406 92.3633 275.27Z" fill="#00F260"/>
<path d="M110.848 267.777C106.707 267.777 103.355 271.129 103.355 275.27C103.355 279.406 106.707 282.762 110.848 282.762H128.832C132.969 282.762 136.324 279.406 136.324 275.27C136.324 271.129 132.969 267.777 128.832 267.777H110.848Z" fill="#00F260"/>
<path d="M111.348 301.719C111.348 297.582 107.992 294.227 103.852 294.227H78.875C74.7383 294.227 71.3828 297.582 71.3828 301.719C71.3828 305.859 74.7383 309.215 78.875 309.215H103.852C107.992 309.215 111.348 305.859 111.348 301.719Z" fill="#00F260"/>
<path d="M115.844 321.625H102.855C98.7148 321.625 95.3594 324.977 95.3594 329.117C95.3594 333.254 98.7148 336.609 102.855 336.609H115.844C119.98 336.609 123.336 333.254 123.336 329.117C123.336 324.977 119.98 321.625 115.844 321.625Z" fill="#00F260"/>
<path d="M221.746 321.625H196.77C192.633 321.625 189.277 324.977 189.277 329.117C189.277 333.254 192.633 336.609 196.77 336.609H221.746C225.887 336.609 229.238 333.254 229.238 329.117C229.238 324.977 225.887 321.625 221.746 321.625Z" fill="#00F260"/>
<path d="M194.273 301.719C194.273 297.582 190.918 294.227 186.777 294.227H126.832C122.695 294.227 119.34 297.582 119.34 301.719C119.34 305.859 122.695 309.215 126.832 309.215H186.777C190.918 309.215 194.273 305.859 194.273 301.719Z" fill="#00F260"/>
<path d="M173.789 321.625H137.824C133.684 321.625 130.328 324.977 130.328 329.117C130.328 333.254 133.684 336.609 137.824 336.609H173.789C177.93 336.609 181.285 333.254 181.285 329.117C181.285 324.977 177.93 321.625 173.789 321.625Z" fill="#00F260"/>
<path d="M46.9062 219.977H67.8867C72.0234 219.977 75.3789 216.621 75.3789 212.484C75.3789 208.344 72.0234 204.992 67.8867 204.992H46.9062C42.7656 204.992 39.4102 208.344 39.4102 212.484C39.4102 216.621 42.7656 219.977 46.9062 219.977Z" fill="#00F260"/>
<path d="M173.289 212.484C173.289 208.344 169.938 204.992 165.797 204.992H88.8672C84.7305 204.992 81.375 208.344 81.375 212.484C81.375 216.621 84.7305 219.977 88.8672 219.977H165.797C169.938 219.977 173.289 216.621 173.289 212.484Z" fill="#00F260"/>
<path d="M159.305 238.934C159.305 234.797 155.949 231.441 151.809 231.441H78.875C74.7383 231.441 71.3828 234.797 71.3828 238.934C71.3828 243.074 74.7383 246.43 78.875 246.43H151.809C155.949 246.43 159.305 243.074 159.305 238.934Z" fill="#00F260"/>
<path d="M172.793 246.43H186.777C190.918 246.43 194.273 243.074 194.273 238.934C194.273 234.797 190.918 231.441 186.777 231.441H172.793C168.652 231.441 165.297 234.797 165.297 238.934C165.297 243.074 168.652 246.43 172.793 246.43Z" fill="#00F260"/>
<path d="M343.016 289.652H295.062C290.922 289.652 287.566 293.008 287.566 297.145C287.566 301.285 290.922 304.637 295.062 304.637H343.016C347.156 304.637 350.512 301.285 350.512 297.145C350.512 293.008 347.156 289.652 343.016 289.652Z" fill="#00F260"/>
<path d="M464.906 289.652H369.992C365.855 289.652 362.5 293.008 362.5 297.145C362.5 301.285 365.855 304.637 369.992 304.637H464.906C469.047 304.637 472.402 301.285 472.402 297.145C472.402 293.008 469.047 289.652 464.906 289.652Z" fill="#00F260"/>
<path d="M343.016 318.625H295.062C290.922 318.625 287.566 321.98 287.566 326.121C287.566 330.258 290.922 333.613 295.062 333.613H343.016C347.156 333.613 350.512 330.258 350.512 326.121C350.512 321.98 347.156 318.625 343.016 318.625Z" fill="#00F260"/>
<path d="M464.906 318.625H369.992C365.855 318.625 362.5 321.98 362.5 326.121C362.5 330.258 365.855 333.613 369.992 333.613H464.906C469.047 333.613 472.402 330.258 472.402 326.121C472.402 321.98 469.047 318.625 464.906 318.625Z" fill="#00F260"/>
<path d="M472.629 136.172C472.629 125.496 463.945 116.809 453.27 116.809H306.699C296.023 116.809 287.336 125.496 287.336 136.172V237.656V237.664V255.414C287.336 266.09 296.023 274.777 306.699 274.777H453.27C463.945 274.777 472.629 266.09 472.629 255.414V136.172ZM457.645 255.414C457.645 257.828 455.68 259.789 453.27 259.789H306.699C304.285 259.789 302.324 257.828 302.324 255.414V240.766L357.207 185.91L395.086 228.598C397.832 231.695 402.57 231.977 405.664 229.23C408.762 226.484 409.043 221.75 406.297 218.652L402.859 214.781L419.797 197.852L457.645 240.508V255.414ZM457.645 217.926L428.805 185.426C426.645 182.992 423.539 181.539 420.285 181.441C417.016 181.348 413.844 182.609 411.543 184.91L392.895 203.547L366.215 173.484C364.055 171.047 360.949 169.594 357.695 169.5C354.445 169.41 351.254 170.664 348.953 172.965L302.324 219.574V136.172C302.324 133.758 304.285 131.793 306.699 131.793H453.27C455.684 131.793 457.645 133.758 457.645 136.172V217.926Z" fill="#00F260"/>
</g>
<defs>
<clipPath id="clip0">
<rect width="512" height="512" fill="white"/>
</clipPath>
</defs>
</svg>
