<svg width="512" height="512" viewBox="0 0 512 512" fill="none" xmlns="http://www.w3.org/2000/svg">
<path d="M256.551 100.198C170.945 100.198 101.299 169.843 101.299 255.45C101.299 282.743 108.482 309.588 122.074 333.082C124.358 337.029 129.41 338.377 133.358 336.096C137.305 333.812 138.655 328.761 136.372 324.812C124.233 303.828 117.816 279.843 117.816 255.45C117.816 178.951 180.052 116.715 256.551 116.715C333.05 116.715 395.286 178.951 395.286 255.45C395.286 331.949 333.05 394.185 256.551 394.185C218.06 394.185 182.28 378.788 155.803 350.83C152.667 347.519 147.44 347.376 144.128 350.513C140.817 353.649 140.674 358.876 143.811 362.188C173.44 393.472 213.478 410.701 256.551 410.701C342.157 410.701 411.803 341.056 411.803 255.449C411.803 169.842 342.157 100.198 256.551 100.198Z" fill="#00F260"/>
<path d="M256.551 155.252C201.301 155.252 156.353 200.2 156.353 255.45C156.353 310.7 201.301 355.648 256.551 355.648C311.801 355.648 356.749 310.7 356.749 255.45C356.749 200.2 311.8 155.252 256.551 155.252ZM256.551 339.131C210.408 339.131 172.869 301.592 172.869 255.449C172.869 209.306 210.408 171.767 256.551 171.767C302.694 171.767 340.233 209.306 340.233 255.449C340.233 301.592 302.693 339.131 256.551 339.131Z" fill="#00F260"/>
<path d="M397.488 78.176C377.453 78.176 361.153 94.476 361.153 114.512C361.153 134.548 377.453 150.847 397.488 150.847C417.523 150.847 433.824 134.547 433.824 114.512C433.824 94.477 417.523 78.176 397.488 78.176ZM397.488 134.331C386.56 134.331 377.669 125.44 377.669 114.512C377.669 103.584 386.56 94.693 397.488 94.693C408.416 94.693 417.307 103.584 417.307 114.512C417.307 125.44 408.416 134.331 397.488 134.331Z" fill="#00F260"/>
<path d="M398.039 0H113.961C51.023 0 0 51.023 0 113.961V398.038C0 460.977 51.023 512 113.961 512H398.038C460.977 512 512 460.977 512 398.039V113.961C512 51.023 460.977 0 398.039 0ZM495.484 398.039C495.484 451.856 451.856 495.484 398.039 495.484H113.961C60.144 495.484 16.516 451.856 16.516 398.039V113.961C16.516 60.144 60.144 16.516 113.961 16.516H398.038C451.855 16.516 495.483 60.144 495.483 113.961V398.039H495.484Z" fill="#00F260"/>
<path d="M394.735 38.538H117.265C73.7861 38.538 38.5381 73.786 38.5381 117.265V394.736C38.5381 438.215 73.7861 473.463 117.265 473.463H394.736C438.215 473.463 473.463 438.215 473.463 394.736V117.265C473.462 73.785 438.215 38.538 394.735 38.538ZM456.946 394.735C456.946 429.093 429.093 456.946 394.735 456.946H117.265C82.9071 456.946 55.0541 429.093 55.0541 394.735V117.265C55.0541 82.907 82.9071 55.054 117.265 55.054H394.736C429.094 55.054 456.947 82.907 456.947 117.265V394.735H456.946Z" fill="#00F260"/>
</svg>
