<svg width="512" height="512" viewBox="0 0 512 512" fill="none" xmlns="http://www.w3.org/2000/svg">
<path d="M225.001 357H220V307C220 298.716 213.284 292 205 292H140C131.716 292 125 298.716 125 307V325.303C125 334.089 118.643 341.57 110.829 341.979C106.657 342.208 102.69 340.744 99.678 337.884C96.661 335.021 95 331.155 95 327V307C95 298.716 88.284 292 80 292H15C6.716 292 0 298.716 0 307V457C0 487.327 24.673 512 55 512H205C213.284 512 220 505.284 220 497V447H225C249.813 447 270 426.813 270 402C270 377.187 249.813 357 225.001 357V357ZM225 417H205C196.716 417 190 423.716 190 432V482H55C41.215 482 30 470.785 30 457V322H65V327C65 339.286 70.112 351.185 79.026 359.644C88.067 368.226 99.92 372.595 112.397 371.938C136.287 370.687 155 350.203 155 325.303V322H190V372C190 380.284 196.716 387 205 387H225.001C233.272 387 240 393.729 240 402C240 410.271 233.271 417 225 417Z" fill="#00F260"/>
<path d="M512 55C512 24.673 487.327 0 457 0H307H157C126.673 0 102 24.673 102 55.001L102.001 205C102.001 213.284 108.717 220 117.001 220H167V225C167 249.813 187.188 270 212.001 270C236.813 270 257 249.813 257 225.001V220H291.999L292 270C292 278.284 298.716 285 307 285H325.303C334.089 285 341.57 291.357 341.979 299.171C342.198 303.35 340.744 307.31 337.884 310.322C335.021 313.339 331.156 315 327 315H307C298.716 315 292 321.716 292 330V395C292 403.284 298.716 410 307 410H457C487.327 410 512 385.327 512 355V55ZM322 80V30H457C470.785 30 482 41.215 482 55V190H447V185C447 172.714 441.888 160.815 432.974 152.356C423.932 143.774 412.068 139.409 399.603 140.062C375.713 141.313 357 161.798 357 186.697V190H322.001L322 140C322 131.716 315.284 125 307 125H288.697C279.911 125 272.43 118.643 272.021 110.829C271.802 106.651 273.256 102.69 276.116 99.678C278.979 96.661 282.845 95 287 95H307C315.284 95 322 88.284 322 80V80ZM242 190C233.716 190 227 196.716 227 205V225.001C227 233.272 220.271 240 212 240C203.729 240 197 233.271 197 225V205C197 196.716 190.284 190 182 190H132.001L132 55.001C132 41.216 143.215 30 157 30H292V65H287C274.714 65 262.815 70.112 254.356 79.026C245.775 88.067 241.409 99.919 242.062 112.397C243.313 136.287 263.797 155 288.697 155H292L292.001 190H242ZM457 380H322V345H327C339.286 345 351.185 339.888 359.645 330.974C368.225 321.933 372.591 310.081 371.938 297.603C370.687 273.713 350.202 255 325.303 255H322L321.999 220H372C380.284 220 387 213.284 387 205V186.697C387 177.911 393.357 170.43 401.171 170.021C405.346 169.809 409.311 171.257 412.322 174.116C415.339 176.979 417 180.845 417 185V205C417 213.284 423.716 220 432 220H481.999L482 355C482 368.785 470.785 380 457 380Z" fill="#00F260"/>
</svg>
