<svg width="512" height="512" viewBox="0 0 512 512" fill="none" xmlns="http://www.w3.org/2000/svg">
<path d="M65.1367 31.3047C52.0508 31.3047 41.4023 41.9531 41.4023 55.0391C41.4023 68.125 52.0508 78.7695 65.1367 78.7695C78.2227 78.7695 88.8672 68.1211 88.8672 55.0352C88.8672 41.9492 78.2227 31.3047 65.1367 31.3047V31.3047ZM65.1367 63.6211C60.4023 63.6211 56.5508 59.7695 56.5508 55.0352C56.5508 50.3047 60.4023 46.4531 65.1367 46.4531C69.8672 46.4531 73.7188 50.3047 73.7188 55.0352C73.7188 59.7695 69.8672 63.6211 65.1367 63.6211Z" fill="#00F260"/>
<path d="M128.758 31.3047C115.672 31.3047 105.023 41.9531 105.023 55.0391C105.023 68.125 115.672 78.7695 128.758 78.7695C141.844 78.7695 152.488 68.125 152.488 55.0391C152.488 41.9531 141.844 31.3047 128.758 31.3047V31.3047ZM128.758 63.6211C124.023 63.6211 120.172 59.7695 120.172 55.0352C120.172 50.3047 124.023 46.4531 128.758 46.4531C133.488 46.4531 137.34 50.3047 137.34 55.0352C137.34 59.7695 133.488 63.6211 128.758 63.6211Z" fill="#00F260"/>
<path d="M192.379 31.3047C179.293 31.3047 168.648 41.9531 168.648 55.0391C168.648 68.125 179.293 78.7695 192.379 78.7695C205.465 78.7695 216.109 68.125 216.109 55.0391C216.109 41.9531 205.465 31.3047 192.379 31.3047V31.3047ZM192.379 63.6211C187.645 63.6211 183.797 59.7695 183.797 55.0352C183.797 50.3047 187.645 46.4531 192.379 46.4531C197.113 46.4531 200.965 50.3047 200.965 55.0352C200.965 59.7695 197.109 63.6211 192.379 63.6211Z" fill="#00F260"/>
<path d="M484.23 0H27.7695C12.457 0 0 12.457 0 27.7695V362.035C0 377.348 12.457 389.805 27.7695 389.805H76.6289C74.3086 392.777 74.5117 397.078 77.2461 399.812L113.637 436.203C110.91 441.797 108.523 447.559 106.492 453.426H55.0352C50.8555 453.426 47.4648 456.816 47.4648 461V504.426C47.4648 508.609 50.8555 512 55.0352 512H204.496C208.68 512 212.07 508.609 212.07 504.426C212.07 481.316 230.871 462.516 253.98 462.516C277.086 462.516 295.887 481.316 295.887 504.426C295.887 508.609 299.277 512 303.461 512H452.922C457.105 512 460.496 508.609 460.496 504.426V461C460.496 456.816 457.105 453.426 452.922 453.426H401.465C399.434 447.559 397.047 441.797 394.32 436.203L430.715 399.812C433.445 397.078 433.648 392.777 431.328 389.805H484.227C499.539 389.805 511.996 377.348 511.996 362.035V174.664C511.996 170.48 508.605 167.09 504.426 167.09C500.242 167.09 496.852 170.48 496.852 174.664V362.035C496.852 368.996 491.188 374.656 484.227 374.656H416.27L371.629 330.016V278.215C371.629 274.031 368.234 270.641 364.055 270.641H350.422V223.969L361.109 214.102C363.258 212.117 364.074 209.078 363.207 206.289L345.031 147.719C344.047 144.551 341.113 142.391 337.797 142.391H317.598C314.281 142.391 311.348 144.551 310.363 147.719L292.188 206.289C291.32 209.078 292.137 212.117 294.285 214.102L304.977 223.969V270.641H291.344C287.16 270.641 283.77 274.031 283.77 278.215V297.906H224.188V286.402L253.273 257.316C254.695 255.895 255.492 253.969 255.492 251.961V189.852C255.492 187.828 254.68 185.887 253.238 184.465L212.848 144.574C210.672 142.426 207.422 141.797 204.605 142.973C201.785 144.152 199.949 146.906 199.949 149.961V217.48L180.258 229.879L160.566 217.48V213.164C160.566 208.98 157.176 205.59 152.992 205.59C148.809 205.59 145.418 208.98 145.418 213.164V221.66C145.418 224.266 146.754 226.684 148.957 228.07L176.223 245.238C178.688 246.793 181.828 246.793 184.293 245.238L211.559 228.07C213.762 226.684 215.098 224.266 215.098 221.66V168.086L240.344 193.016V248.82L211.258 277.906C209.836 279.328 209.039 281.254 209.039 283.266V298.059C205.582 298.762 202.98 301.816 202.98 305.48V356.938C197.109 358.965 191.352 361.355 185.754 364.078L151.477 329.801V283.266C151.477 281.254 150.68 279.328 149.258 277.906L120.172 248.82V193.016L145.418 168.086V177.691C145.418 181.875 148.809 185.266 152.992 185.266C157.176 185.266 160.566 181.875 160.566 177.691V149.965C160.566 146.906 158.73 144.152 155.91 142.977C153.094 141.797 149.844 142.43 147.668 144.574L107.273 184.465C105.832 185.887 105.023 187.828 105.023 189.852V251.961C105.023 253.969 105.82 255.895 107.242 257.316L136.328 286.402V330.016L91.6875 374.656H27.7695C20.8086 374.656 15.1484 368.996 15.1484 362.035V110.074H496.852V139.379C496.852 143.559 500.242 146.949 504.426 146.949C508.609 146.949 512 143.559 512 139.379V27.7695C512 12.457 499.543 0 484.23 0V0ZM317.688 215.09L308.074 206.215L323.184 157.539H332.219L347.324 206.215L337.711 215.09C336.16 216.523 335.273 218.539 335.273 220.656V270.645H320.129V220.656C320.125 218.539 319.242 216.523 317.688 215.09V215.09ZM356.48 285.789V329.805L322.203 364.082C316.605 361.359 310.848 358.969 304.977 356.938V305.484C304.977 301.82 302.375 298.766 298.918 298.062V285.793H356.48V285.789ZM187.855 380.012C195.805 375.777 204.188 372.301 212.77 369.68C215.953 368.707 218.129 365.766 218.129 362.434V313.055H289.828V362.434C289.828 365.766 292.008 368.707 295.191 369.68C303.773 372.301 312.156 375.777 320.105 380.012C323.047 381.578 326.664 381.039 329.023 378.684L363.949 343.758L407.773 387.586C407.777 387.586 407.777 387.59 407.781 387.594L414.648 394.457L379.723 429.383C377.367 431.738 376.828 435.359 378.395 438.301C382.629 446.246 386.105 454.629 388.727 463.215C389.699 466.398 392.641 468.574 395.969 468.574H445.348V496.852H368.344C364.43 437.168 314.637 389.809 253.98 389.809C237.762 389.809 222.086 393.129 207.383 399.676C203.563 401.379 201.844 405.855 203.547 409.68C205.246 413.5 209.73 415.215 213.547 413.516C226.297 407.836 239.898 404.957 253.98 404.957C306.281 404.957 349.285 445.527 353.164 496.852H310.535C306.82 468.961 282.875 447.371 253.98 447.371C225.086 447.371 201.141 468.961 197.426 496.852H154.789C156.629 471.98 167.531 449.129 185.953 431.852C189.004 428.992 189.16 424.199 186.297 421.145C183.438 418.098 178.645 417.941 175.594 420.801C154.414 440.66 141.555 468.039 139.625 496.852H62.6094V468.574H111.988C115.32 468.574 118.262 466.398 119.234 463.215C121.855 454.629 125.332 446.246 129.566 438.301C131.133 435.359 130.594 431.738 128.238 429.383L93.3125 394.457L100.18 387.594C100.18 387.59 100.184 387.586 100.188 387.586L144.012 343.758L178.938 378.684C181.293 381.039 184.914 381.578 187.855 380.012V380.012ZM15.1484 94.9258V27.7695C15.1484 20.8086 20.8125 15.1484 27.7695 15.1484H484.23C491.191 15.1484 496.852 20.8125 496.852 27.7695V94.9258H15.1484Z" fill="#00F260"/>
</svg>
