<svg width="512" height="512" viewBox="0 0 512 512" fill="none" xmlns="http://www.w3.org/2000/svg">
<path d="M398.615 24.35L376.462 2.197C374.998 0.732 373.078 0 371.159 0H140.841C138.922 0 137.002 0.732 135.538 2.197L113.385 24.35C110.47 27.265 110.454 31.985 113.348 34.92L195.797 118.516L231.973 165.164L207.366 342.332C206.796 346.435 209.66 350.223 213.763 350.792C214.113 350.841 214.46 350.864 214.804 350.864C218.488 350.864 221.702 348.148 222.223 344.395L246.366 170.564H265.631L272.534 220.268C273.104 224.371 276.893 227.233 280.994 226.665C285.097 226.095 287.961 222.307 287.391 218.205L280.024 165.163L316.2 118.515L398.649 34.919C401.546 31.985 401.529 27.264 398.615 24.35V24.35ZM335.727 32.325H239.446C235.304 32.325 231.946 35.683 231.946 39.825C231.946 43.967 235.304 47.325 239.446 47.325H320.727L293.3 74.752H218.7L191.273 47.325H204.427C208.569 47.325 211.927 43.967 211.927 39.825C211.927 35.683 208.569 32.325 204.427 32.325H176.273L158.948 15H353.052L335.727 32.325ZM140.841 18.106L206.624 83.889L199.115 100.517L129.259 29.689L140.841 18.106ZM268.488 155.565H243.512L210.145 112.539L220.436 89.752H291.565L301.856 112.539L268.488 155.565ZM312.885 100.517L305.376 83.889L371.159 18.106L382.742 29.689L312.885 100.517Z" fill="#00F260"/>
<path d="M292.231 253.04C291.661 248.937 287.873 246.078 283.771 246.643C279.668 247.213 276.804 251.001 277.374 255.103L304.591 451.061L256 494.446L207.41 451.062L217.397 379.154C217.967 375.051 215.103 371.263 211 370.694C206.896 370.119 203.109 372.988 202.54 377.091L192.002 452.961C191.658 455.437 192.571 457.922 194.436 459.587L251.005 510.095C252.428 511.365 254.214 512 256 512C257.786 512 259.572 511.365 260.995 510.095L317.564 459.587C319.429 457.921 320.341 455.437 319.998 452.961L292.231 253.04Z" fill="#00F260"/>
</svg>
