<svg width="358" height="439" xmlns="http://www.w3.org/2000/svg"><g id="Symbols" fill="none" fill-rule="evenodd"><g id="illustration/circle-guy" fill-rule="nonzero"><g id="Group"><ellipse id="Oval" fill="#05CACC" cx="171.9" cy="266.8" rx="171.8" ry="171.9"/><path d="M330.5 231.7c3.3-1.6 6-4 8.1-7-5-20.1-13.7-38.9-25.4-55.7v.2l-.3-1c-2.4-3.5-5-6.9-7.9-10.3a11 11 0 0 0-14 13.7l5.1 15.2a20 20 0 0 0-13.4 19v8c0 6.4 3 12.2 8.1 16a113 113 0 0 1-30.7 56.5 110 110 0 0 1-43.5 26.5c-5-1.7-10.3-3-18.5-3.9-7.7-1-15.4-1.7-22.6-1.9v-7.7A84.7 84.7 0 0 0 253 215v-6.5a20 20 0 0 0 14-32.2c5-13.7 8-29.6 9-46.4A171.3 171.3 0 0 0 41.7 155c1.5 7.3 3.1 14 5 20a19.8 19.8 0 0 0-5.2 13.5 20 20 0 0 0 20 20.2h.6v6.5c0 44 34 80.5 77.1 84.1v7.7c-42 2.6-79.5 15.4-119.3 40.6 27.8 52.2 81.9 88.5 144.6 91h2.1c35.6-2 69-14.5 97-36.1 1-.8 1.3-2.2.6-3.2a509.7 509.7 0 0 1-30-50.7 153 153 0 0 0 96.3-116.9z" id="Shape" fill="#00ADA8"/><path id="Rectangle-path" fill="#F2AD79" transform="rotate(-180 172 299.8)" d="M156.5 278.2h31v43.3h-31z"/><path d="M26.6 58A58.6 58.6 0 0 1 59.5 1.8c8.6-4.3 19.7-.7 23 8.4 4.4 11.3 16.6 19 43 19l76.4 2.2c50.7.2 86.3 41.6 86 92.3-.2 50.7-21.3 109.9-86.4 109.9a77.2 77.2 0 0 1-52.4-22.9c-8.2 8-17.3 12.8-27 12.5-37.1-.2-67-27.4-67.4-111-.2-.5-28.1-15-28.1-54.4z" id="Shape" fill="#3B3B3A"/><ellipse id="Oval" fill="#F6C8A1" transform="rotate(-89.9 262.4 191)" cx="262.4" cy="190.9" rx="17.8" ry="17.8"/><ellipse id="Oval" fill="#DCB390" transform="rotate(-89.9 79.5 190.6)" cx="79.5" cy="190.6" rx="17.8" ry="17.8"/><path d="M264.5 138.2c0-24.3-15-45-36-53.6-5.1-2.2-10.9 2-10.9 7.4a25 25 0 0 1-25 25H98.5A19.4 19.4 0 0 0 79 136.5V218a82.2 82.2 0 0 0 82.2 82.3h21a82.2 82.2 0 0 0 82.3-82.3v-79.8z" id="Shape" fill="#F6C8A1"/><g transform="translate(91.7 220.2)" fill="#FF6692" id="Oval"><ellipse cx="11.5" cy="12.3" rx="11.5" ry="11.5"/><ellipse cx="145.8" cy="12.3" rx="11.5" ry="11.5"/></g><path d="M103 218v-81.5c0-10.8 8.7-19.5 19.5-19.5h-24A19.4 19.4 0 0 0 79 136.5V218a82.2 82.2 0 0 0 82.2 82.2h22A82.4 82.4 0 0 1 103 218z" id="Shape" fill="#000" opacity=".1"/><path d="M172 438.8c39.6 0 75.8-13.5 104.9-35.9a438 438 0 0 1-45.9-84.8c-97-12.3-140 9.1-192.6 57.2a172.3 172.3 0 0 0 133.5 63.5z" id="Shape" fill="#E5457A"/><path d="M207.7 315.7l-71.3 7.2a28.4 28.4 0 0 0-28.4 28.3V426a162.3 162.3 0 0 0 127.8 0v-96.4c0-15.6-12.5-14-28-14z" id="Shape" fill="#8055D1"/><path d="M199.3 236.8c5.3-4.1 13 .2 12 7a33.7 33.7 0 0 1-55.5 19.7c-5-4.6-1.9-12.8 4.8-13a63.7 63.7 0 0 0 38.7-13.7z" id="Shape" fill="#FFF"/><path d="M163 228.9h17.8a6 6 0 0 0 6-6 6 6 0 0 0-6-6H163a6 6 0 0 0-6 6 6 6 0 0 0 6 6z" id="Shape" fill="#F2AD79"/><path d="M205.3 358l-1.4-35.4c27.6-1.9 52.6-13 72.3-32.4 19.4-19.3 31.2-45 33.4-72.2l34.3 3a149.9 149.9 0 0 1-138.6 137z" id="Shape" fill="#8055D1"/><path d="M212.3 314c-67.8-8-122 1.4-185.7 44.5 14.9 23.5 35 43.2 59.3 57.2 34.9-98.1 145.4-97.6 145.4-97.6a68 68 0 0 0-19-4.1z" id="Shape" fill="#FF6491"/><g fill="#3B3B3A" id="Shape"><path d="M118.7 9.6H99.5c-2.5 0-4.6-2-4.6-4.6 0-2.6 2-4.5 4.6-4.5h19.2a4.6 4.6 0 1 1 0 9.1zM26 9.6H6.6c-2.4 0-4.5-2-4.5-4.6C2.2 2.4 4 .5 6.7.5H26a4.6 4.6 0 1 1 0 9.1z" transform="translate(108.5 136)"/></g><g id="Oval"><g transform="translate(198.4 164.9)"><ellipse fill="#FFF" cx="19.4" cy="19.2" rx="18.7" ry="18.8"/><ellipse fill="#3B3B3A" cx="13.5" cy="18.5" rx="12.5" ry="12.5"/></g><g transform="translate(101.1 164.5)"><ellipse fill="#FFF" cx="24.9" cy="19.6" rx="18.7" ry="18.8"/><ellipse fill="#3B3B3A" transform="rotate(-45 18.6 19.2)" cx="18.6" cy="19.2" rx="12.5" ry="12.5"/></g></g><g fill="#3B3B3A" id="Shape"><path d="M131.3 64.9c-10.3 0-20.6-2-27.6-5.6a26.5 26.5 0 0 1-13.2-17.7V41L88 15.6c-.3-1.7.7-3.4 2.1-4.3 31.8-20 75-6.8 77-6 1.6.4 2.8 1.9 3 3.8 0 .7 2.2 16.8.3 30-1.5 10.6-6.7 18.6-14.4 21.7-7.2 2.9-16.1 4-24.8 4zM99.3 40c1 4.8 4.2 9 8.5 11.3 9.3 5 31 6.5 44.7 1 5.2-2.2 8.1-9 8.8-14.4 1.3-9 .5-19.8 0-24.8-9.3-2.4-40.5-8.7-64 4.6l2 22.3z" transform="translate(86.5 151.5)"/><path d="M90.7 20H78.5c-2.4 0-4.6-2-4.6-4.7 0-2.6 2-4.5 4.6-4.5h12.2a4.6 4.6 0 1 1 0 9.1z" transform="translate(86.5 151.5)"/><path d="M39.8 64.9c-8.9 0-17.8-1.5-24.5-4.1C7.6 57.7 2.1 49.8.9 39.2-.8 25.7 1 9.6 1 9c.3-1.7 1.5-3.4 3.1-3.8 2-.5 45.2-13.8 77 6 1.4 1 2 2.6 2 4.3L81 41v.5a25.1 25.1 0 0 1-13.2 17.7A65.4 65.4 0 0 1 39.8 65zm-30-51.7c-.5 5-1.2 15.9 0 24.8.7 5.5 3.3 12.2 8.9 14.4a65.5 65.5 0 0 0 44.6-1c4.4-2.1 7.5-6.5 8.4-11.3L74 17.8c-23.8-13.3-54.8-7-64.1-4.6z" transform="translate(86.5 151.5)"/></g><path d="M89.5 172.8H73.7c-2.4 0-4.6-1.9-4.6-4.5 0-2.7 2-4.6 4.6-4.6h15.8c2.4 0 4.6 2 4.6 4.6 0 2.6-2 4.5-4.6 4.5zM271.1 172.8h-15.8c-2.4 0-4.6-1.9-4.6-4.5 0-2.7 2-4.6 4.6-4.6H271c2.4 0 4.6 2 4.6 4.6 0 2.6-2 4.5-4.6 4.5z" id="Shape" fill="#3B3B3A"/><g fill="#F6C8A1" id="Shape"><path d="M32.7 40.9a8.3 8.3 0 0 1-3.4-11.3L40.3 9c2.2-4 7.3-5.5 11.3-3.3C55.7 7.9 57.2 13 55 17L44 37.5A8.3 8.3 0 0 1 32.7 41z" transform="translate(300.7 152.9)"/><path d="M29.5 40.2c4.6-.8 7.7-5.1 7-9.7L33 7.7a8.4 8.4 0 0 0-16.6 2.6L20 33.2c.8 4.5 5 7.7 9.6 7z" transform="translate(300.7 152.9)"/><path d="M34.4 74.8l-19-3.4A17.9 17.9 0 0 1 1 51l1.4-8a17.9 17.9 0 0 1 20.4-14.4l19 3.4a17.9 17.9 0 0 1 14.4 20.4l-1.4 8a18 18 0 0 1-20.4 14.4z" transform="translate(300.7 152.9)"/></g><path d="M315.8 206.5l1.5-8a17.9 17.9 0 0 1 20.4-14.4l-14.2-2.4a17.7 17.7 0 0 0-20.4 14.5l-1.5 7.9a17.7 17.7 0 0 0 14.5 20.4l14.1 2.4a18 18 0 0 1-14.4-20.4z" id="Shape" fill="#F2AD79"/><path d="M196.2 341.1L181 367.6c-.7 1.4.3 3.1 1.7 3.1l14.7.3c1.9 0 2.6 2.4 1.4 3.6-13.2 12.2-35.8 32.9-48 44.4-1.7 1.7-4.3-.4-3.1-2.4l14.9-28c.7-1.5-.3-3.2-2-3.2h-13.9c-2 0-2.9-2.4-1.4-3.6l47.8-43c1.6-2 4.3.2 3 2.3z" id="Shape" fill="#FFCA2F"/></g></g></g></svg>