<svg width="350" height="568" viewBox="0 0 350 568" fill="none" xmlns="http://www.w3.org/2000/svg">
<path d="M131.5 284C122.401 284 115 290.282 115 298.001C115 305.721 122.401 312 131.5 312C140.599 312 148 305.721 148 298.001C148 290.282 140.599 284 131.5 284V284ZM131.5 303.064C128.208 303.064 125.533 300.792 125.533 297.999C125.533 295.208 128.208 292.936 131.5 292.936C134.792 292.936 137.47 295.208 137.47 297.999C137.47 300.792 134.789 303.064 131.5 303.064Z" fill="#00F260"/>
<path d="M331.017 265H18.9831C8.51555 265 0 272.372 0 281.434V479.251C0 488.313 8.51555 495.685 18.9831 495.685H52.383C50.7969 497.444 50.9357 499.99 52.8049 501.608L77.6814 523.144C75.8175 526.454 74.1859 529.864 72.7974 533.336H37.6217C34.7645 533.336 32.4467 535.343 32.4467 537.818V563.518C32.4467 565.993 34.7645 568 37.6217 568H139.792C142.652 568 144.97 565.993 144.97 563.518C144.97 549.842 157.822 538.715 173.619 538.715C189.414 538.715 202.266 549.842 202.266 563.518C202.266 565.993 204.584 568 207.444 568H309.615C312.474 568 314.792 565.993 314.792 563.518V537.818C314.792 535.343 312.474 533.336 309.615 533.336H274.439C273.05 529.864 271.419 526.454 269.555 523.144L294.434 501.608C296.301 499.99 296.439 497.444 294.853 495.685H331.014C341.482 495.685 349.997 488.313 349.997 479.251V368.366C349.997 365.89 347.68 363.883 344.822 363.883C341.962 363.883 339.645 365.89 339.645 368.366V479.251C339.645 483.371 335.773 486.72 331.014 486.72H284.559L254.043 460.302V429.647C254.043 427.171 251.723 425.164 248.866 425.164H239.546V397.544L246.852 391.705C248.321 390.53 248.879 388.732 248.286 387.081L235.861 352.419C235.188 350.545 233.183 349.266 230.916 349.266H217.108C214.841 349.266 212.835 350.545 212.162 352.419L199.738 387.081C199.145 388.732 199.703 390.53 201.171 391.705L208.48 397.544V425.164H199.161C196.301 425.164 193.983 427.171 193.983 429.647V441.3H153.253V434.492L173.136 417.279C174.108 416.438 174.653 415.298 174.653 414.11V377.354C174.653 376.156 174.097 375.007 173.112 374.166L145.501 350.559C144.014 349.287 141.792 348.915 139.867 349.611C137.939 350.309 136.684 351.939 136.684 353.746V393.704L123.223 401.042L109.762 393.704V391.15C109.762 388.674 107.444 386.667 104.585 386.667C101.725 386.667 99.4068 388.674 99.4068 391.15V396.178C99.4068 397.72 100.32 399.151 101.826 399.971L120.465 410.131C122.15 411.051 124.297 411.051 125.982 410.131L144.62 399.971C146.126 399.151 147.039 397.72 147.039 396.178V364.473L164.297 379.226V412.251L144.415 429.464C143.443 430.306 142.898 431.445 142.898 432.636V441.39C140.535 441.806 138.756 443.614 138.756 445.782V476.234C134.743 477.434 130.807 478.849 126.98 480.46L103.548 460.175V432.636C103.548 431.445 103.004 430.306 102.032 429.464L82.1487 412.251V379.226L99.4068 364.473V370.157C99.4068 372.633 101.725 374.64 104.585 374.64C107.444 374.64 109.762 372.633 109.762 370.157V353.749C109.762 351.939 108.507 350.309 106.579 349.613C104.654 348.915 102.432 349.289 100.945 350.559L73.3315 374.166C72.3461 375.007 71.7934 376.156 71.7934 377.354V414.11C71.7934 415.298 72.3381 416.438 73.3101 417.279L93.1931 434.492V460.302L62.677 486.72H18.9831C14.2246 486.72 10.3554 483.371 10.3554 479.251V330.142H339.645V347.484C339.645 349.958 341.962 351.964 344.822 351.964C347.682 351.964 350 349.958 350 347.484V281.434C350 272.372 341.484 265 331.017 265V265ZM217.169 392.289L210.598 387.037L220.926 358.231H227.103L237.429 387.037L230.857 392.289C229.797 393.138 229.191 394.331 229.191 395.584V425.167H218.838V395.584C218.835 394.331 218.232 393.138 217.169 392.289V392.289ZM243.688 434.129V460.177L220.256 480.463C216.43 478.851 212.494 477.437 208.48 476.234V445.785C208.48 443.616 206.702 441.809 204.338 441.392V434.131H243.688V434.129ZM128.417 489.89C133.851 487.384 139.581 485.326 145.448 483.775C147.624 483.2 149.112 481.459 149.112 479.487V450.265H198.125V479.487C198.125 481.459 199.615 483.2 201.791 483.775C207.658 485.326 213.388 487.384 218.822 489.89C220.833 490.817 223.306 490.498 224.918 489.104L248.793 468.435L278.751 494.372C278.754 494.372 278.754 494.374 278.757 494.377L283.451 498.438L259.576 519.107C257.966 520.501 257.597 522.644 258.668 524.385C261.563 529.087 263.939 534.048 265.731 539.129C266.396 541.013 268.407 542.301 270.682 542.301H304.437V559.035H251.797C249.122 523.715 215.084 495.688 173.619 495.688C162.532 495.688 151.817 497.652 141.766 501.527C139.154 502.535 137.979 505.184 139.143 507.447C140.305 509.708 143.37 510.723 145.979 509.717C154.695 506.356 163.993 504.652 173.619 504.652C209.372 504.652 238.769 528.662 241.421 559.035H212.28C209.74 542.53 193.372 529.753 173.619 529.753C153.867 529.753 137.498 542.53 134.959 559.035H105.813C107.071 544.317 114.523 530.793 127.116 520.568C129.202 518.876 129.309 516.04 127.351 514.232C125.397 512.429 122.12 512.336 120.035 514.029C105.556 525.781 96.7659 541.984 95.4468 559.035H42.7994V542.301H76.5545C78.8322 542.301 80.843 541.013 81.5079 539.129C83.2996 534.048 85.6762 529.087 88.5708 524.385C89.6416 522.644 89.2731 520.501 87.6629 519.107L63.7878 498.438L68.4822 494.377C68.4822 494.374 68.4849 494.372 68.4875 494.372L98.4455 468.435L122.321 489.104C123.931 490.498 126.406 490.817 128.417 489.89V489.89ZM10.3554 321.177V281.434C10.3554 277.314 14.2273 273.965 18.9831 273.965H331.017C335.775 273.965 339.645 277.317 339.645 281.434V321.177H10.3554Z" fill="#00F260"/>
<path d="M160 131C163.866 131 167 128.314 167 125C167 121.686 163.866 119 160 119C156.134 119 153 121.686 153 125C153 128.314 156.134 131 160 131Z" fill="#00F260"/>
<path d="M179.101 130H205.899C208.717 130 211 127.985 211 125.5C211 123.015 208.717 121 205.899 121H179.101C176.283 121 174 123.015 174 125.5C174 127.985 176.284 130 179.101 130Z" fill="#00F260"/>
<path d="M139.505 259.364C140.336 259.795 141.251 260 142.154 260C143.907 260 145.615 259.228 146.582 257.834L163 234.17L179.418 257.834C180.386 259.228 182.094 260 183.846 260C184.749 260 185.664 259.795 186.495 259.364C188.938 258.096 189.73 255.356 188.264 253.244L169.016 225.5L188.264 197.756C189.73 195.644 188.938 192.904 186.495 191.636C184.052 190.369 180.884 191.054 179.418 193.166L163 216.83L146.582 193.166C145.115 191.053 141.948 190.369 139.505 191.636C137.062 192.904 136.27 195.644 137.736 197.756L156.984 225.5L137.736 253.244C136.27 255.356 137.062 258.096 139.505 259.364V259.364Z" fill="#00F260"/>
<path d="M114.144 326C111.302 326 109 328 109 330.467V354.533C109 357 111.302 359 114.144 359H141.856C144.698 359 147 357 147 354.533V330.467C147 328 144.698 326 141.856 326H114.144ZM136.712 350.066H119.288V334.934H136.712V350.066Z" fill="#00F260"/>
<path d="M192.856 326H165.144C162.302 326 160 328 160 330.467V354.533C160 357 162.302 359 165.144 359H192.856C195.698 359 198 357 198 354.533V330.467C198 327.999 195.698 326 192.856 326ZM187.712 350.066H170.288V334.934H187.712V350.066Z" fill="#00F260"/>
<path d="M281 384.665C281 384.216 280.921 383.784 280.778 383.375V196.431C280.778 193.984 278.481 192 275.646 192C272.812 192 270.515 193.984 270.515 196.431V380.234H87.2626V320.547C87.2626 318.1 84.9658 316.116 82.1313 316.116C79.2968 316.116 77 318.1 77 320.547V402.569C77 405.016 79.2968 407 82.1313 407H275.646C278.481 407 280.778 405.016 280.778 402.569V385.955C280.921 385.547 281 385.114 281 384.665ZM87.2626 398.138V389.096H270.515V398.138H87.2626Z" fill="#00F260"/>
<path d="M77.0494 299.78C77.0494 302.234 79.3482 304.224 82.1852 304.224C85.0221 304.224 87.3209 302.234 87.3209 299.78V278.074H160.519L193.601 306.698C194.584 307.549 195.898 308 197.234 308C197.896 308 198.563 307.889 199.198 307.662C201.118 306.974 202.369 305.353 202.369 303.556V278.075H204.15C214.61 278.075 223.12 270.712 223.12 261.661V189.84C223.12 180.789 214.61 173.426 204.15 173.426H140.335C137.498 173.426 135.2 175.415 135.2 177.87C135.2 180.324 137.498 182.313 140.335 182.313H204.149C208.946 182.313 212.848 185.69 212.848 189.84V261.66C212.848 265.81 208.946 269.186 204.149 269.186H197.232C194.395 269.186 192.097 271.176 192.097 273.63V292.828L166.278 270.488C165.314 269.655 164.008 269.186 162.646 269.186H82.2516C82.2297 269.186 82.2078 269.184 82.1852 269.184C82.1626 269.184 82.1413 269.186 82.1188 269.186H51.97C47.1732 269.186 43.2714 265.81 43.2714 261.66V189.84C43.2714 185.69 47.1732 182.313 51.97 182.313H116.425C119.262 182.313 121.561 180.324 121.561 177.87C121.561 175.415 119.262 173.426 116.425 173.426H87.3209V130.842H126.921L131.928 140.373C134.999 146.218 141.778 149.994 149.199 149.994H208.851C216.271 149.994 223.05 146.217 226.121 140.373L231.128 130.842H270.729V175.377C270.729 177.831 273.027 179.821 275.864 179.821C278.701 179.821 281 177.831 281 175.377V108.444C281 105.99 278.701 104 275.864 104H82.1852C79.3482 104 77.0494 105.99 77.0494 108.444V173.427H51.97C41.5102 173.427 33 180.79 33 189.841V261.661C33 270.711 41.5102 278.074 51.97 278.074H77.0494V299.78ZM270.728 112.887V121.955H227.821C225.807 121.955 223.979 122.974 223.145 124.56L216.769 136.695C215.361 139.375 212.253 141.107 208.851 141.107H149.199C145.796 141.107 142.687 139.375 141.28 136.695L134.904 124.56C134.07 122.973 132.243 121.955 130.229 121.955H87.3216V112.887H270.728Z" fill="#00F260"/>
<path d="M176.181 131C173.337 131 171.031 133.031 171.031 135.537V143.276L167.845 140.384C165.864 138.586 162.604 138.543 160.563 140.288C158.522 142.033 158.473 144.905 160.455 146.703L172.486 157.623C173.457 158.504 174.789 159 176.182 159H176.222C177.627 158.99 178.968 158.475 179.933 157.572L191.6 146.652C193.55 144.828 193.45 141.956 191.38 140.239C189.309 138.522 186.051 138.608 184.099 140.433L181.333 143.023V135.536C181.331 133.031 179.025 131 176.181 131V131Z" fill="#00F260"/>
<path d="M243.691 258H108.308C101.521 258 96 262.735 96 268.555V292.445C96 298.265 101.522 303 108.308 303H145.732C148.568 303 150.868 301.028 150.868 298.596C150.868 296.163 148.568 294.192 145.732 294.192H108.308C107.186 294.192 106.272 293.408 106.272 292.445V268.555C106.272 267.592 107.186 266.808 108.308 266.808H243.691C244.814 266.808 245.728 267.592 245.728 268.555V292.445C245.728 293.408 244.814 294.192 243.691 294.192H169.53C166.694 294.192 164.394 296.163 164.394 298.596C164.394 301.028 166.694 303 169.53 303H243.691C250.478 303 256 298.265 256 292.445V268.555C256 262.735 250.478 258 243.691 258V258Z" fill="#00F260"/>
<path d="M243.691 80H143.963C141.126 80 138.827 81.9719 138.827 84.4043C138.827 86.8366 141.126 88.8086 143.963 88.8086H243.691C244.814 88.8086 245.727 89.5919 245.727 90.5544V114.446C245.727 115.408 244.814 116.191 243.691 116.191H108.307C107.185 116.191 106.271 115.408 106.271 114.446V90.5544C106.271 89.5919 107.185 88.8086 108.307 88.8086H120.166C123.002 88.8086 125.302 86.8366 125.302 84.4043C125.302 81.9719 123.002 80 120.166 80H108.308C101.521 80 96 84.7349 96 90.5544V114.446C96 120.266 101.522 125 108.308 125H243.691C250.478 125 256 120.265 256 114.446V90.5544C255.999 84.7343 250.478 80 243.691 80Z" fill="#00F260"/>
<path d="M109 193.245C108.979 197.647 112.019 201.542 116.745 203.171L166.6 220.35C169.792 221.45 173.146 222 176.5 222C179.854 222 183.208 221.45 186.4 220.35L236.254 203.171C240.981 201.543 244.021 197.647 244 193.245C243.979 188.843 240.901 184.969 236.159 183.375L217.397 177.067C214.753 176.18 211.783 177.312 210.757 179.597C209.731 181.882 211.04 184.453 213.68 185.341L232.443 191.649C233.566 192.027 233.738 192.834 233.739 193.282C233.741 193.729 233.578 194.538 232.458 194.924L182.603 212.103C178.667 213.459 174.332 213.459 170.395 212.103L120.54 194.924C119.421 194.538 119.257 193.729 119.259 193.282C119.261 192.834 119.433 192.027 120.556 191.649L170.524 174.85C174.377 173.555 178.62 173.555 182.473 174.85L191.638 177.931C194.282 178.82 197.252 177.686 198.278 175.402C199.304 173.118 197.995 170.545 195.355 169.658L186.19 166.576C179.941 164.475 173.057 164.475 166.809 166.576L116.841 183.375C112.1 184.969 109.022 188.844 109 193.245V193.245Z" fill="#00F260"/>
<path d="M176.181 48C173.337 48 171.031 49.9587 171.031 52.3746V59.8371L167.845 57.0484C165.864 55.3149 162.604 55.2735 160.563 56.9563C158.522 58.639 158.473 61.4084 160.455 63.1419L172.486 73.6725C173.457 74.5217 174.789 75 176.182 75H176.222C177.628 74.9907 178.968 74.4931 179.933 73.6235L191.6 63.0929C193.55 61.3338 193.45 58.5649 191.38 56.909C189.309 55.2537 186.051 55.3371 184.099 57.0962L181.333 59.5933V52.3746C181.331 49.9587 179.025 48 176.181 48V48Z" fill="#00F260"/>
<path d="M243.691 0H108.308C101.521 0 96 4.73483 96 10.5549V34.4451C96 40.2652 101.522 45 108.308 45H243.691C250.478 45 256 40.2652 256 34.4451V10.5549C256 4.73483 250.478 0 243.691 0V0ZM245.728 34.4451C245.728 35.4082 244.814 36.1916 243.691 36.1916H108.308C107.186 36.1916 106.272 35.4082 106.272 34.4451V10.5549C106.272 9.59181 107.186 8.80845 108.308 8.80845H243.691C244.814 8.80845 245.728 9.59181 245.728 10.5549V34.4451Z" fill="#00F260"/>
</svg>
