<svg width="512" height="512" viewBox="0 0 512 512" fill="none" xmlns="http://www.w3.org/2000/svg">
<path d="M328.398 175.141H353.68C364.078 175.141 372.539 166.68 372.539 156.281V108.574C372.539 98.1797 364.078 89.7188 353.68 89.7188H321.445C294.754 89.7188 269.113 99.5273 249.258 117.344C246.172 120.109 245.914 124.848 248.68 127.934C251.445 131.016 256.187 131.273 259.273 128.508C276.375 113.168 298.457 104.719 321.445 104.719H353.68C355.809 104.719 357.539 106.449 357.539 108.574V156.281C357.539 158.406 355.809 160.141 353.68 160.141H328.398C303.758 160.141 283.711 180.184 283.711 204.824V246.91C283.711 251.051 287.066 254.41 291.211 254.41H353.68C355.809 254.41 357.539 256.141 357.539 258.266V305.973C357.539 308.098 355.809 309.828 353.68 309.828H291.211C287.066 309.828 283.711 313.188 283.711 317.328V391.941C283.711 396.086 287.066 399.441 291.211 399.441C295.352 399.441 298.711 396.086 298.711 391.941V324.828H353.68C364.078 324.828 372.539 316.371 372.539 305.973V258.266C372.539 247.867 364.078 239.41 353.68 239.41H298.711V204.824C298.711 188.457 312.027 175.141 328.398 175.141Z" fill="#00F260"/>
<path d="M474.5 0H37.5C16.8203 0 0 16.8203 0 37.5V231.738C0 235.883 3.35938 239.238 7.5 239.238C11.6406 239.238 15 235.883 15 231.738V37.5C15 25.0938 25.0938 15 37.5 15H474.5C486.906 15 497 25.0938 497 37.5V474.5C497 486.906 486.906 497 474.5 497H298.711V426.465C298.711 422.32 295.352 418.965 291.211 418.965C287.066 418.965 283.711 422.32 283.711 426.465V497H228.289V317.328C228.289 313.188 224.934 309.828 220.789 309.828H158.32C156.191 309.828 154.461 308.098 154.461 305.969V258.266C154.461 256.137 156.191 254.406 158.32 254.406H220.789C224.934 254.406 228.289 251.051 228.289 246.906V197.875C228.289 182.492 232.117 167.25 239.359 153.793C241.324 150.145 239.961 145.598 236.312 143.633C232.664 141.672 228.117 143.035 226.152 146.684C217.738 162.316 213.289 180.02 213.289 197.871V239.406H158.32C147.922 239.406 139.461 247.863 139.461 258.266V305.969C139.461 316.367 147.922 324.828 158.32 324.828H213.289V497H37.5C25.0938 497 15 486.906 15 474.5V266.262C15 262.117 11.6406 258.762 7.5 258.762C3.35938 258.762 0 262.117 0 266.262V474.5C0 495.18 16.8203 512 37.5 512H474.5C495.18 512 512 495.18 512 474.5V37.5C512 16.8203 495.18 0 474.5 0Z" fill="#00F260"/>
</svg>
