<svg width="512" height="492" viewBox="0 0 512 492" fill="none" xmlns="http://www.w3.org/2000/svg">
<path d="M256 0.666626C114.56 0.666626 0 113.307 0 252.229C0 363.397 73.344 457.669 175.04 490.907C187.84 493.275 192.533 485.488 192.533 478.811C192.533 472.837 192.32 457.008 192.213 436.037C121.003 451.205 105.984 402.288 105.984 402.288C94.336 373.253 77.504 365.488 77.504 365.488C54.3147 349.893 79.296 350.213 79.296 350.213C105.003 351.963 118.507 376.133 118.507 376.133C141.333 414.597 178.432 403.483 193.067 397.061C195.371 380.784 201.963 369.712 209.28 363.419C152.427 357.125 92.672 335.493 92.672 239.109C92.672 211.653 102.592 189.211 119.019 171.611C116.139 165.253 107.499 139.675 121.259 105.029C121.259 105.029 142.699 98.288 191.659 130.821C212.139 125.232 233.899 122.459 255.659 122.331C277.419 122.459 299.179 125.232 319.659 130.821C368.299 98.288 389.739 105.029 389.739 105.029C403.499 139.675 394.859 165.253 392.299 171.611C408.619 189.211 418.539 211.653 418.539 239.109C418.539 335.749 358.699 357.019 301.739 363.205C310.699 370.757 319.019 386.181 319.019 409.755C319.019 443.419 318.699 470.469 318.699 478.64C318.699 485.232 323.179 493.104 336.299 490.587C438.72 457.563 512 363.227 512 252.229C512 113.307 397.376 0.666626 256 0.666626V0.666626Z" fill="#00F260"/>
</svg>
