<svg id="Layer_1" enable-background="new 0 0 512 512" viewBox="0 0 512 512" xmlns="http://www.w3.org/2000/svg"><g><g><path d="m488.534 4.267c-2.134-2.134-4.267-4.267-8.533-4.267h-448.001c-2.133 0-6.399 2.133-8.533 4.267s-2.133 4.267-2.133 8.533l42.667 426.667c0 4.267 4.267 8.533 6.399 8.533l192 64h4.267 4.267l170.666-64c4.267-2.133 6.399-4.267 6.399-8.533l42.667-426.667c.002-2.132.002-6.4-2.132-8.533zm-232.533 381.867c0 2.133-2.134 6.4-4.267 8.533s-4.393 2.416-6.525 2.416l-2.007-.283-74.667-21.333c-4.267-2.133-6.399-4.267-8.533-8.533l-10.667-53.334c-2.133-6.399 2.133-10.667 8.533-12.8 6.399-2.133 10.667 2.133 12.801 8.533l8.533 46.933 55.467 14.934v-241.066h-117.335c-6.399 0-10.667-4.267-10.667-10.667 0-6.399 4.267-10.667 10.667-10.667h128c6.399 0 10.667 4.267 10.667 10.667zm149.333-264.534-10.667 42.667c-2.133 6.399-6.482 9.559-12.8 8.533-6.658-1.08-9.208-6.435-8.533-12.801.804-7.594 6.399-29.866 6.399-29.866h-83.2v106.667h74.667c2.133 0 6.399 2.133 8.533 4.267 2.133 2.133 2.133 6.399 2.133 8.533l-21.333 117.333c0 4.267-4.267 6.399-6.399 8.533l-64 21.333c-2.133 0-9.884 2.95-14.934-6.399-2.133-6.399 2.133-10.667 6.399-12.801l57.6-19.2 17.067-98.134h-72.534c-6.399 0-10.667-4.267-10.667-10.667v-128c0-6.399 4.267-10.667 10.667-10.667h106.667c4.267 0 7.187.912 9.975 2.067 5.915 2.451 4.96 6.469 4.96 8.602z"/></g></g><g/><g/><g/><g/><g/><g/><g/><g/><g/><g/><g/><g/><g/><g/><g/></svg>