<svg width="470" height="512" viewBox="0 0 470 512" fill="none" xmlns="http://www.w3.org/2000/svg">
<path d="M467.2 4.267C465.066 2.133 462.933 0 458.667 0H10.666C8.533 0 4.267 2.133 2.133 4.267C-0.00100064 6.401 8.78401e-10 8.534 8.78401e-10 12.8L42.667 439.467C42.667 443.734 46.934 448 49.066 448L241.066 512H245.333H249.6L420.266 448C424.533 445.867 426.665 443.733 426.665 439.467L469.332 12.8C469.334 10.668 469.334 6.4 467.2 4.267V4.267ZM234.667 386.134C234.667 388.267 232.533 392.534 230.4 394.667C228.267 396.8 226.007 397.083 223.875 397.083L221.868 396.8L147.201 375.467C142.934 373.334 140.802 371.2 138.668 366.934L128.001 313.6C125.868 307.201 130.134 302.933 136.534 300.8C142.933 298.667 147.201 302.933 149.335 309.333L157.868 356.266L213.335 371.2V130.134H96C89.601 130.134 85.333 125.867 85.333 119.467C85.333 113.068 89.6 108.8 96 108.8H224C230.399 108.8 234.667 113.067 234.667 119.467V386.134ZM384 121.6L373.333 164.267C371.2 170.666 366.851 173.826 360.533 172.8C353.875 171.72 351.325 166.365 352 159.999C352.804 152.405 358.399 130.133 358.399 130.133H275.199V236.8H349.866C351.999 236.8 356.265 238.933 358.399 241.067C360.532 243.2 360.532 247.466 360.532 249.6L339.199 366.933C339.199 371.2 334.932 373.332 332.8 375.466L268.8 396.799C266.667 396.799 258.916 399.749 253.866 390.4C251.733 384.001 255.999 379.733 260.265 377.599L317.865 358.399L334.932 260.265H262.398C255.999 260.265 251.731 255.998 251.731 249.598V121.598C251.731 115.199 255.998 110.931 262.398 110.931H369.065C373.332 110.931 376.252 111.843 379.04 112.998C384.955 115.449 384 119.467 384 121.6V121.6Z" fill="#F2F2F2"/>
</svg>
